# xmcd CD database file
#
# Track frame offsets:
#	187
#	33887
#	51030
#	78705
#	99342
#	118040
#	185915
#	198720
#	229562
#
# Disc length: 3279 seconds
#
# Revision: 0
# Processed by: cddbd v1.5.1PL2 Copyright (c) Steve Scherf et al.
# Submitted via: CDex 1.51
#
DISCID=750ccd09
DTITLE=Duke Ellington - seattle concert
DYEAR=1952
DGENRE=Jazz
TTITLE0=SKIN DEEP
TTITLE1=SULTRY SERENADE
TTITLE2=SOPHISTICATED LADY
TTITLE3=PERDIDO
TTITLE4=CARAVAN
TTITLE5=HARLEM SUITE
TTITLE6=THE HAWK TALKS
TTITLE7=ELLINGTON MEDLEY
TTITLE8=JAM WITH SAM
EXTD=YEAR: 1952
EXTT0=
EXTT1=
EXTT2=
EXTT3=
EXTT4=
EXTT5=
EXTT6=
EXTT7=
EXTT8=
PLAYORDER=
